<!-- Generated by IcoMoon.io -->
<svg version="1.1" xmlns="http://www.w3.org/2000/svg" viewBox="0 0 32 32">
<title>work</title>
<path d="M19.395 20.474v0.64c0 0.752-0.611 1.363-1.363 1.363h-4.058c-0.752 0-1.363-0.611-1.363-1.363v-0.643c-3.888-0.525-6.938-1.91-9.238-2.912l-1.69-0.624v11.168c0 0.739 0.522 1.53 1.306 1.53h25.904c0.803 0 1.424-0.819 1.424-1.53v-11.392l-1.686 0.845c-2.298 1.008-5.35 2.39-9.235 2.918z"></path>
<path d="M12.608 18.771v-1.066c0-0.752 0.611-1.363 1.363-1.363h4.058c0.752 0 1.363 0.611 1.363 1.363v1.066c5.072-0.73 9.264-3.011 10.602-3.677l1.686-0.931v-3.779c0.003-1.485-1.101-2.56-2.614-2.56h-7.27v-2.042c0-1.882-2.013-3.414-4.49-3.414h-2.726c-2.451 0-4.371 1.501-4.371 3.414v2.042h-7.053c-1.587 0-2.835 1.126-2.835 2.56v3.917l1.363 0.762c1.338 0.666 5.856 2.982 10.925 3.709zM11.891 5.779c0-1.13 1.024-1.725 2.685-1.725h2.726c1.667 0 2.806 0.634 2.806 1.725v2.042h-8.218v-2.042z"></path>
<path d="M14.294 17.706h3.408v3.408h-3.408v-3.408z"></path>
</svg>
